<?xml version="1.0" encoding="utf-8"?>
<!-- Generator: Adobe Illustrator 16.0.0, SVG Export Plug-In . SVG Version: 6.00 Build 0)  -->
<!DOCTYPE svg PUBLIC "-//W3C//DTD SVG 1.1//EN" "http://www.w3.org/Graphics/SVG/1.1/DTD/svg11.dtd">
<svg version="1.1" id="Capa_1" xmlns="http://www.w3.org/2000/svg" xmlns:xlink="http://www.w3.org/1999/xlink" x="0px" y="0px"
	 width="960px" height="560px" viewBox="0 0 960 560" enable-background="new 0 0 960 560" xml:space="preserve">
<g>
	<path fill-rule="evenodd" clip-rule="evenodd" fill="#BF0411" d="M357.468,355.57c0.87-1.23,1.791-2.533,3.438-4.862
		c-3.828,0.757-6.584,1.302-9.299,1.839c0.195-0.418,0.703-1.508,1.817-3.896c-3.097,2.089-5.031,3.394-6.965,4.698
		c-0.131-0.145-0.263-0.289-0.394-0.434c1.485-2.041,2.969-4.082,4.454-6.124c-0.201-0.231-0.401-0.462-0.602-0.692
		c-1.805,1.193-3.611,2.387-5.416,3.579c-0.155-0.124-0.31-0.247-0.465-0.37c1.745-2.395,3.489-4.788,5.233-7.182
		c-0.231-0.225-0.462-0.448-0.693-0.672c-2.236,1.43-4.472,2.861-8.001,5.119c1.365-2.344,1.96-3.366,2.936-5.041
		c-1.53,0.289-2.47,0.467-3.712,0.701c1.346-2.612,2.776-4.949,3.801-7.453c4.049-9.889,7.407-14.49,16.661-20.361
		c20.343-12.905,40.842-25.563,61.277-38.323c1.524-0.952,3.04-1.918,5.014-3.165c-30.149-34.833-60.99-68.838-80.75-110.725
		c0.393-0.293,0.785-0.586,1.178-0.879c1.003,1.21,1.933,2.494,3.033,3.608c0.962,0.974,2.119,1.755,3.858,2.069
		c-2.422-4.113-4.844-8.226-7.267-12.338c0.343-0.232,0.687-0.464,1.03-0.696c2.228,2.684,4.455,5.367,6.683,8.05
		c0.246-0.151,0.493-0.303,0.739-0.455c-3.419-5.828-6.839-11.655-11.002-18.751c2.194,1.149,2.939,1.54,3.104,1.626
		c-0.406-3.723-0.841-7.705-1.398-12.811c2.258,1.548,3.515,2.409,4.771,3.271c0.253-0.146,0.505-0.293,0.758-0.44
		c-1.694-2.966-3.389-5.932-5.083-8.897c0.14-0.188,0.28-0.376,0.42-0.564c1.307,0.954,2.614,1.909,3.922,2.862
		c1.734-5.931-3.622-9.272-5.376-14.83c6.354-0.56,5.818,7.216,11.114,8.477c-1.963-3.397-3.561-6.163-5.159-8.928
		c0.361-0.262,0.723-0.524,1.085-0.787c31.676,49.326,67.497,95.395,107.253,138.865c11.009-8.092,21.962-15.63,32.35-23.883
		c23.298-18.508,46.264-37.433,69.484-56.04c4.772-3.823,9.911-7.257,15.171-10.38c3.719-2.207,7.927-3.587,11.969-5.36
		c-0.278,0.832-0.709,2.118-1.564,4.679c4.071-2.78,7.103-4.849,10.133-6.918c0.188,0.189,0.377,0.378,0.564,0.568
		c-1.513,1.693-3.025,3.386-4.537,5.079c0.236,0.285,0.473,0.569,0.709,0.854c2.27-1.907,4.539-3.814,7.221-6.068
		c0.205,1.196,0.338,1.974,0.553,3.237c5.573-3.643,10.93-9.828,16.353-9.887c4.841-0.053,4.892,3.391,1.119,8.19
		c-9.736,12.391-19.343,24.884-29.179,37.195c-4.624,5.789-11.338,8.706-17.585,12.397c-6.216,3.674-11.663,8.735-17.173,13.505
		c-21.254,18.397-42.514,36.773-66.184,52.104c-1.92,1.243-3.525,2.969-5.871,4.979c25.316,23.81,50.34,47.343,76.346,71.801
		c-3.807-1.085-6.369-1.815-10.01-2.854c4.129,3.903,7.525,7.113,10.921,10.323c-0.188,0.271-0.376,0.541-0.564,0.811
		c-4.392-3.053-8.782-6.104-13.173-9.156c-0.283,0.262-0.564,0.521-0.848,0.782c4.971,5.072,9.94,10.146,14.91,15.218
		c-0.238,0.234-0.477,0.468-0.716,0.701c-2.068-1.627-4.137-3.256-6.205-4.883c-0.304,0.359-0.606,0.719-0.911,1.078
		c2.756,2.234,5.512,4.468,8.267,6.701c-7.171,1.176-9.952-5.107-15.688-6.453c3.697,3.995,7.396,7.991,11.093,11.987
		c-0.125,0.173-0.25,0.347-0.375,0.521c-3.951-2.787-7.901-5.572-11.852-8.359c-0.246,0.276-0.491,0.553-0.736,0.828
		c3.717,3.559,7.433,7.116,11.149,10.674c-0.116,0.188-0.231,0.376-0.347,0.563c-1.402-0.762-2.806-1.522-5.099-2.769
		c0.786,1.73,1.196,2.634,1.945,4.283c-2.54-1.863-4.537-3.329-6.534-4.795c-0.318,0.203-0.636,0.405-0.953,0.607
		c0.957,1.799,1.914,3.597,3.09,5.805c-9.724-2.869-16.008-10.629-23.885-15.909c-26.182-17.554-47.953-40.044-69.853-62.392
		c-0.69-0.704-1.449-1.341-2.317-2.139c-20.987,12.928-42.706,24.461-61.701,40.281c-5.806,4.835-11.922,10.522-18.824,12.389
		C365.5,351.809,362.588,356.497,357.468,355.57z"/>
</g>
</svg>
