<?xml version="1.0" encoding="utf-8"?>
<!-- Generator: Adobe Illustrator 16.0.0, SVG Export Plug-In . SVG Version: 6.00 Build 0)  -->
<!DOCTYPE svg PUBLIC "-//W3C//DTD SVG 1.1//EN" "http://www.w3.org/Graphics/SVG/1.1/DTD/svg11.dtd">
<svg version="1.1" id="Capa_1" xmlns="http://www.w3.org/2000/svg" xmlns:xlink="http://www.w3.org/1999/xlink" x="0px" y="0px"
	 width="960px" height="560px" viewBox="0 0 960 560" enable-background="new 0 0 960 560" xml:space="preserve">
<circle fill-rule="evenodd" clip-rule="evenodd" fill="#3AA0A9" cx="1158.075" cy="1364.927" r="106.927"/>
<path fill-rule="evenodd" clip-rule="evenodd" fill="#3AA0A9" d="M1053.759,1377.449c0-7.652,0-15.307,0-22.958
	c1.581-1.915,1.033-4.364,1.474-6.533c8.542-42.041,33.399-69.421,73.962-82.849c6.146-2.035,12.642-2.385,18.851-4.081
	c7.106,0,14.211,0,21.318,0c2.201,1.659,4.914,0.957,7.359,1.455c42.032,8.573,69.421,33.416,82.841,73.978
	c2.035,6.147,2.388,12.643,4.085,18.852c0,7.38,0,14.757,0,22.137c-1.156,0.524-0.676,1.604-0.816,2.463
	c-0.834,4.984-1.356,10.035-3.328,14.76c-1.134-0.748-2.398-1.356-3.374-2.275c-19.355-18.196-38.686-36.428-58.01-54.663
	c-10.209-9.633-20.4-19.279-30.586-28.935c-1.022-0.97-2.067-1.786-3.565-1.721c-1.844-2.67-4.31-3.765-7.427-2.604
	c-3.027,1.13-3.617,3.627-3.615,6.606c0.021,22.665-0.048,45.33-0.09,67.995c-2.411-1.452-4.747-3.063-7.258-4.323
	c-4.146-2.085-7.502-5.739-12.426-6.273c-0.253-0.191-0.506-0.381-0.76-0.573c-0.528-0.368-1.058-0.735-1.588-1.104
	c-2.448-1.699-4.838-3.501-7.368-5.069c-2.135-1.326-4.429-1.308-6.472,0.295c-1.977,1.555-2.122,3.741-1.522,5.944
	c0.407,1.488,1.638,2.422,2.879,3.318c12.014,8.706,24.024,17.418,35.982,26.194c1.369,1.008,2.927,1.397,4.402,2.059
	c6.111,6.221,13.205,11.319,19.676,17.135c-19.526,0.039-39.051,0.043-58.573,0.171c-2.368,0.016-3.037-0.738-2.966-3.026
	c0.156-4.774,0.083-9.555,0.036-14.335c-0.038-3.839-2.274-6.462-5.361-6.43c-3.091,0.028-5.257,2.638-5.276,6.518
	c-0.039,7.238,0.103,14.478-0.066,21.71c-0.069,3.033,0.997,5.236,3.361,6.947c7.914,8.286,17.124,15.141,25.422,23.009
	c7.011,6.645,14.994,12.244,21.287,19.672c-3.007,0-6.012,0-9.02,0c-1.919-1.58-4.366-1.031-6.533-1.474
	c-42.038-8.544-69.508-33.372-82.766-73.989C1056.023,1389.616,1055.124,1383.458,1053.759,1377.449z"/>
<path fill-rule="evenodd" clip-rule="evenodd" fill="#1E9797" d="M1178.383,1416.678c-6.471-5.815-13.564-10.914-19.676-17.135
	c1.429-0.431,2.81-0.912,4.052-1.82c12.214-8.927,24.466-17.801,36.668-26.741c3.128-2.291,3.73-5.488,1.745-8.084
	c-1.882-2.457-4.996-2.784-7.985-0.69c-3.124,2.188-6.158,4.502-9.243,6.748c-6.322,4.604-12.65,9.201-19.496,14.177
	c0-2.323,0-3.811,0-5.3c0-21.975,0.007-43.945-0.015-65.918c-0.002-1.616,0.299-3.282-0.464-4.836
	c1.498-0.065,2.543,0.751,3.565,1.721c10.186,9.655,20.377,19.302,30.586,28.935c19.324,18.235,38.654,36.467,58.01,54.663
	c0.976,0.919,2.24,1.527,3.374,2.275c-0.116,0.666-0.142,1.357-0.355,1.984c-13.539,39.745-40.76,64.066-81.932,72.666
	c-0.9,0.189-2.433-0.286-2.114,1.591c-0.548,0-1.095,0-1.641,0c-1.367-1.3-2.732-1.123-4.099,0c-4.372,0-8.746,0-13.117,0
	c-6.293-7.428-14.276-13.027-21.287-19.672c-8.298-7.868-17.508-14.723-25.422-23.009c31.808,0.017,63.617,0.043,95.426,0.037
	c4.264,0,6.161-1.918,6.199-6.254c0.058-7.51,0.041-15.019,0.002-22.528c-0.02-3.876-2.199-6.445-5.325-6.44
	c-3.121,0.002-5.284,2.577-5.314,6.452c-0.038,4.914-0.08,9.831,0.026,14.744c0.041,1.909-0.512,2.638-2.52,2.597
	C1191.485,1416.696,1184.933,1416.717,1178.383,1416.678z"/>
<path fill-rule="evenodd" clip-rule="evenodd" fill="#FEFFFF" d="M1163.969,1307.078c0.763,1.554,0.462,3.22,0.464,4.836
	c0.021,21.973,0.015,43.943,0.015,65.918c0,1.489,0,2.977,0,5.3c6.846-4.976,13.174-9.573,19.496-14.177
	c3.085-2.246,6.119-4.561,9.243-6.748c2.989-2.094,6.104-1.767,7.985,0.69c1.985,2.596,1.383,5.793-1.745,8.084
	c-12.202,8.94-24.454,17.814-36.668,26.741c-1.242,0.908-2.623,1.39-4.052,1.82c-1.476-0.661-3.033-1.051-4.402-2.059
	c-11.958-8.776-23.969-17.488-35.982-26.194c-1.241-0.896-2.472-1.83-2.879-3.318c-0.6-2.203-0.454-4.39,1.522-5.944
	c2.043-1.603,4.337-1.621,6.472-0.295c2.53,1.568,4.92,3.37,7.368,5.069c0.53,0.368,1.06,0.735,1.588,1.104
	c0.254,0.192,0.507,0.382,0.76,0.573c6.386,4.786,12.768,9.574,19.229,14.409c0.911-1.461,0.548-2.649,0.455-3.813
	c0.042-22.665,0.111-45.33,0.09-67.995c-0.002-2.979,0.588-5.477,3.615-6.606
	C1159.659,1303.313,1162.125,1304.408,1163.969,1307.078z"/>
<path fill-rule="evenodd" clip-rule="evenodd" fill="#FFFFFF" d="M1178.383,1416.678c6.55,0.039,13.103,0.019,19.648,0.162
	c2.008,0.041,2.561-0.688,2.52-2.597c-0.106-4.913-0.064-9.83-0.026-14.744c0.03-3.875,2.193-6.45,5.314-6.452
	c3.126-0.005,5.306,2.564,5.325,6.44c0.039,7.51,0.056,15.019-0.002,22.528c-0.038,4.336-1.936,6.254-6.199,6.254
	c-31.809,0.006-63.618-0.021-95.426-0.037c-2.364-1.711-3.431-3.914-3.361-6.947c0.169-7.232,0.027-14.472,0.066-21.71
	c0.02-3.88,2.186-6.489,5.276-6.518c3.087-0.032,5.323,2.591,5.361,6.43c0.047,4.78,0.12,9.561-0.036,14.335
	c-0.071,2.288,0.598,3.042,2.966,3.026C1139.332,1416.721,1158.856,1416.717,1178.383,1416.678z"/>
<path fill-rule="evenodd" clip-rule="evenodd" fill="#359D9D" d="M1152.837,1379.075c0.093,1.163,0.456,2.352-0.455,3.813
	c-6.461-4.835-12.843-9.623-19.229-14.409c4.924,0.534,8.279,4.188,12.426,6.273
	C1148.09,1376.013,1150.426,1377.623,1152.837,1379.075z"/>
<path fill-rule="evenodd" clip-rule="evenodd" fill="#359D9D" d="M1132.394,1367.905c-0.528-0.368-1.058-0.735-1.588-1.104
	C1131.336,1367.17,1131.865,1367.537,1132.394,1367.905z"/>
</svg>
