<?xml version="1.0" encoding="utf-8"?>
<!-- Generator: Adobe Illustrator 16.0.0, SVG Export Plug-In . SVG Version: 6.00 Build 0)  -->
<!DOCTYPE svg PUBLIC "-//W3C//DTD SVG 1.1//EN" "http://www.w3.org/Graphics/SVG/1.1/DTD/svg11.dtd">
<svg version="1.1" id="Capa_1" xmlns="http://www.w3.org/2000/svg" xmlns:xlink="http://www.w3.org/1999/xlink" x="0px" y="0px"
	 width="960px" height="560px" viewBox="0 0 960 560" enable-background="new 0 0 960 560" xml:space="preserve">
<polygon fill-rule="evenodd" clip-rule="evenodd" fill="#D8D9DD" points="1175.148,918.017 1180.491,914.586 1182.958,881.437 
	1185.99,869.518 1194.466,863.336 1202.275,863.336 1211.729,867.462 1215.017,875.271 1217.483,911.029 1219.18,918.017 
	1197.164,996.521 "/>
<path fill-rule="evenodd" clip-rule="evenodd" fill="#FFFFFF" d="M1130.742,1010.531c-0.092-0.093-0.186-0.186-0.277-0.277
	C1130.703,1010.2,1130.797,1010.293,1130.742,1010.531z"/>
<text transform="matrix(1.0047 0 0 1 970.8477 914.5859)" fill="#7B057E" stroke="#7B057E" stroke-width="2" stroke-miterlimit="10" font-family="'YuGothicUI-Semilight'" font-size="101.4784">Dow </text>
<text transform="matrix(1 0 0 1 1219.1797 1000.0879)"><tspan x="0" y="0" fill="#7B057E" stroke="#7B057E" stroke-width="2" stroke-miterlimit="10" font-family="'YuGothicUI-Semilight'" font-size="101.4784">ow</tspan><tspan x="129.177" y="0" fill="#7B057E" font-family="'YuGothicUI-Semilight'" font-size="101.4784"> </tspan></text>
<polygon fill-rule="evenodd" clip-rule="evenodd" fill="#7B057E" points="1170.14,914.586 1143.6,1003.066 1152.447,1003.066 
	1174.194,929.859 1194.1,1003.066 1201.84,1003.066 1228.38,914.586 1219.164,914.586 1197.785,986.257 1178.987,914.586 "/>
<text transform="matrix(-1.0392 0 0 -1 1223.0273 863.3359)" fill="#EDEEF0" stroke="#7B057E" stroke-width="5" stroke-miterlimit="10" font-family="'YuGothicUI-Light'" font-size="71.0737">U</text>
<text transform="matrix(1.0047 0 0 1 994.7646 1037.9766)" font-family="'YuGothicUI-Semilight'" font-size="22.5445">V I D E O      D O W N L O A D E R</text>
</svg>
