<?xml version="1.0" encoding="utf-8"?>
<!-- Generator: Adobe Illustrator 16.0.0, SVG Export Plug-In . SVG Version: 6.00 Build 0)  -->
<!DOCTYPE svg PUBLIC "-//W3C//DTD SVG 1.1//EN" "http://www.w3.org/Graphics/SVG/1.1/DTD/svg11.dtd">
<svg version="1.1" id="Capa_1" xmlns="http://www.w3.org/2000/svg" xmlns:xlink="http://www.w3.org/1999/xlink" x="0px" y="0px"
	 width="960px" height="560px" viewBox="0 0 960 560" enable-background="new 0 0 960 560" xml:space="preserve">
<path fill-rule="evenodd" clip-rule="evenodd" fill="#459B48" d="M1568.242,1100.804c0.347-0.259,0.69-0.52,1.038-0.776
	c1.896-0.817,3.43-2.248,5.276-3.146c0.45-0.219,0.795-0.816,1.435-0.506c0.087,0.103,0.172,0.206,0.259,0.308
	c0.318,0.899,0.942,1.595,1.534,2.315c0.361,0.454,0.243,0.803-0.199,1.137c-0.63,0.479-1.231,0.997-1.848,1.498
	c-1.026,0.646-1.924,1.455-2.8,2.284c-0.181,0.183-0.364,0.365-0.547,0.545c-1.262,0.858-2.373,1.883-3.353,3.051
	c-0.315,0.008-0.488,0.179-0.535,0.485c-1.487,0.991-2.603,2.366-3.809,3.648c-0.098,0.097-0.197,0.191-0.286,0.288
	c-0.928,0.867-1.99,1.611-2.587,2.784c-0.601,0.096-0.66,0.725-1.033,1.041c-1.244,1.084-2.341,2.301-3.343,3.605
	c-0.829,0.647-1.385,1.543-2.069,2.324c-0.46,0.324-0.78,0.763-1.043,1.251c-1.115,1.267-2.22,2.538-3.34,3.799
	c-2.595,2.919-4.745,6.186-7.548,8.966c-2.08,2.061-3.571,4.711-5.321,7.1c-0.236,0.599-1.049,0.794-1.068,1.537
	c-0.446,0.579-1.054,1.044-1.273,1.786c-0.712,0.493-0.993,1.321-1.466,1.992c-1.445,2.052-2.807,4.163-4.202,6.254
	c-0.291,0.069-0.218,0.316-0.255,0.514c-0.947,0.988-1.618,2.161-2.228,3.378c-1.786,2.657-3.448,5.398-4.925,8.242
	c-0.545,0.135-0.174,0.788-0.578,1.003c-0.372,0.456-0.683,0.944-0.767,1.544c-1.109,1.292-1.675,2.87-2.34,4.394
	c-0.408,0.143-0.568,0.557-0.652,0.865c-0.575,2.13-1.706,3.783-3.733,4.76c-0.104,0.049-0.156,0.191-0.234,0.284
	c-1.129,0.546-2.157,1.232-3.074,2.087c-0.264,0.165-0.526,0.327-0.788,0.491c-2.497,1.624-4.89,3.394-7.072,5.363
	c-0.228-0.531-0.436-1.01-0.639-1.491l0.01,0.011c-0.331-1.525-0.919-2.959-1.543-4.378c-0.872-2.557-1.949-5.031-3.087-7.481
	c-0.625-1.454-1.249-2.908-1.873-4.364c-0.237-0.437-0.468-0.869-0.699-1.301c-0.111-0.886-0.58-1.602-1.087-2.302
	c-1.363-2.741-2.583-5.574-4.883-7.73c-0.334-0.904-1.103-1.444-1.769-2.072c-0.519-0.707-1.195-1.248-1.881-1.782
	c-0.727-0.704-1.602-1.174-2.514-1.582c-1.566-0.951-1.566-0.951-0.541-2.082c0.322-0.175,0.572-0.422,0.745-0.745
	c0.176-0.105,0.378-0.183,0.524-0.32c2.199-2.086,4.652-3.767,7.496-4.857c1.413-0.591,2.898-0.555,4.387-0.517
	c0.963,0.253,1.806,0.734,2.592,1.329c0.517,0.497,1.029,0.997,1.545,1.497c1.872,2.12,3.3,4.534,4.633,7.004
	c0.6,1.202,1.193,2.4,1.793,3.6c0.088,0.175,0.184,0.35,0.273,0.522c0.594,1.435,1.179,2.872,1.801,4.291
	c0.144,0.325,0.19,0.818,0.659,0.853c0.454,0.033,0.581-0.439,0.8-0.726c0.167-0.222,0.221-0.536,0.326-0.811
	c0.692-1.109,1.386-2.215,2.08-3.323c0.156-0.189,0.349-0.362,0.469-0.573c0.618-1.04,1.025-2.36,1.759-3.139
	c1.251-1.329,2.144-2.854,3.197-4.29c0.308-0.162,0.399-0.461,0.499-0.759c1.025-0.993,1.772-2.198,2.558-3.374
	c0.461-0.353,0.76-0.833,1.03-1.336c0.521-0.664,1.172-1.234,1.545-2.014c3.266-3.794,6.526-7.589,9.79-11.382
	c0.086-0.096,0.173-0.19,0.256-0.286c1.214-1.336,2.569-2.545,3.638-4.017c0.084-0.045,0.167-0.089,0.253-0.137
	c1.206-1.249,2.411-2.497,3.614-3.745c0.15-0.026,0.237-0.108,0.227-0.271c1.435-1.028,2.559-2.382,3.797-3.615
	c0.099-0.089,0.194-0.175,0.287-0.264c1.103-0.992,2.198-1.991,3.301-2.979c5.404-4.853,10.934-9.56,16.826-13.827
	C1566.632,1102.127,1567.353,1101.337,1568.242,1100.804z"/>
</svg>
